{
    "asset" : {
        "generator" : "Khronos glTF Blender I/O v1.7.33",
        "version" : "2.0"
    },
    "scene" : 0,
    "scenes" : [
        {
            "name" : "Scene",
            "nodes" : [
                0,
                1,
                2,
                3,
                4,
                5,
                6,
                7,
                8,
                9
            ]
        }
    ],
    "nodes" : [
        {
            "mesh" : 0,
            "name" : "Cube"
        },
        {
            "name" : "E_cercle"
        },
        {
            "name" : "E_carre"
        },
        {
            "mesh" : 1,
            "name" : "Cylinder"
        },
        {
            "mesh" : 2,
            "name" : "Cylinder.001"
        },
        {
            "mesh" : 3,
            "name" : "Cube.001"
        },
        {
            "mesh" : 4,
            "name" : "Sphere"
        },
        {
            "name" : "E_cone",
            "rotation" : [
                0,
                0.19509035348892212,
                0,
                0.9807853698730469
            ]
        },
        {
            "mesh" : 5,
            "name" : "Sphere.001"
        },
        {
            "mesh" : 6,
            "name" : "Sphere.002"
        }
    ],
    "materials" : [
        {
            "doubleSided" : true,
            "name" : "bois",
            "normalTexture" : {
                "index" : 0
            },
            "pbrMetallicRoughness" : {
                "baseColorTexture" : {
                    "index" : 1
                },
                "metallicFactor" : 0,
                "metallicRoughnessTexture" : {
                    "index" : 2
                }
            }
        },
        {
            "doubleSided" : true,
            "name" : "tex_metal2",
            "normalTexture" : {
                "index" : 3
            },
            "pbrMetallicRoughness" : {
                "baseColorTexture" : {
                    "index" : 4
                },
                "metallicFactor" : 0.9863640069961548,
                "metallicRoughnessTexture" : {
                    "index" : 5
                }
            }
        },
        {
            "doubleSided" : true,
            "name" : "metal",
            "normalTexture" : {
                "index" : 6
            },
            "pbrMetallicRoughness" : {
                "baseColorTexture" : {
                    "index" : 7
                },
                "metallicRoughnessTexture" : {
                    "index" : 8
                }
            }
        }
    ],
    "meshes" : [
        {
            "name" : "Cube",
            "primitives" : [
                {
                    "attributes" : {
                        "POSITION" : 0,
                        "NORMAL" : 1,
                        "TEXCOORD_0" : 2
                    },
                    "indices" : 3,
                    "material" : 0
                }
            ]
        },
        {
            "name" : "Cylinder",
            "primitives" : [
                {
                    "attributes" : {
                        "POSITION" : 4,
                        "NORMAL" : 5,
                        "TEXCOORD_0" : 6
                    },
                    "indices" : 7,
                    "material" : 1
                }
            ]
        },
        {
            "name" : "Cylinder.001",
            "primitives" : [
                {
                    "attributes" : {
                        "POSITION" : 8,
                        "NORMAL" : 9,
                        "TEXCOORD_0" : 10
                    },
                    "indices" : 11,
                    "material" : 1
                }
            ]
        },
        {
            "name" : "Cube.001",
            "primitives" : [
                {
                    "attributes" : {
                        "POSITION" : 12,
                        "NORMAL" : 13,
                        "TEXCOORD_0" : 14
                    },
                    "indices" : 15,
                    "material" : 0
                }
            ]
        },
        {
            "name" : "Sphere.001",
            "primitives" : [
                {
                    "attributes" : {
                        "POSITION" : 16,
                        "NORMAL" : 17,
                        "TEXCOORD_0" : 18
                    },
                    "indices" : 19,
                    "material" : 2
                }
            ]
        },
        {
            "name" : "Sphere.002",
            "primitives" : [
                {
                    "attributes" : {
                        "POSITION" : 20,
                        "NORMAL" : 21,
                        "TEXCOORD_0" : 22
                    },
                    "indices" : 23,
                    "material" : 2
                }
            ]
        },
        {
            "name" : "Sphere.003",
            "primitives" : [
                {
                    "attributes" : {
                        "POSITION" : 24,
                        "NORMAL" : 25,
                        "TEXCOORD_0" : 26
                    },
                    "indices" : 27,
                    "material" : 2
                }
            ]
        }
    ],
    "textures" : [
        {
            "sampler" : 0,
            "source" : 0
        },
        {
            "sampler" : 0,
            "source" : 1
        },
        {
            "sampler" : 0,
            "source" : 2
        },
        {
            "sampler" : 0,
            "source" : 3
        },
        {
            "sampler" : 0,
            "source" : 4
        },
        {
            "sampler" : 0,
            "source" : 5
        },
        {
            "sampler" : 0,
            "source" : 6
        },
        {
            "sampler" : 0,
            "source" : 7
        },
        {
            "sampler" : 0,
            "source" : 8
        }
    ],
    "images" : [
        {
            "mimeType" : "image/jpeg",
            "name" : "Wood067_1K_NormalDX",
            "uri" : "tonau%20tex/Wood067_1K_NormalDX.jpg"
        },
        {
            "mimeType" : "image/jpeg",
            "name" : "Wood067_1K_Color",
            "uri" : "tonau%20tex/Wood067_1K_Color.jpg"
        },
        {
            "mimeType" : "image/png",
            "name" : "Wood067_1K_Roughness",
            "uri" : "tonau%20tex/Wood067_1K_Roughness.png"
        },
        {
            "mimeType" : "image/jpeg",
            "name" : "Metal011_1K_NormalDX",
            "uri" : "tonau%20tex/Metal011_1K_NormalDX.jpg"
        },
        {
            "mimeType" : "image/jpeg",
            "name" : "Metal011_1K_Color",
            "uri" : "tonau%20tex/Metal011_1K_Color.jpg"
        },
        {
            "mimeType" : "image/png",
            "name" : "Metal011_1K_Metalness",
            "uri" : "tonau%20tex/Metal011_1K_Metalness.png"
        },
        {
            "mimeType" : "image/jpeg",
            "name" : "Metal038_1K_NormalDX",
            "uri" : "tonau%20tex/Metal038_1K_NormalDX.jpg"
        },
        {
            "mimeType" : "image/jpeg",
            "name" : "Metal038_1K_Color",
            "uri" : "tonau%20tex/Metal038_1K_Color.jpg"
        },
        {
            "mimeType" : "image/png",
            "name" : "Metal038_1K_Roughness",
            "uri" : "tonau%20tex/Metal038_1K_Roughness.png"
        }
    ],
    "accessors" : [
        {
            "bufferView" : 0,
            "componentType" : 5126,
            "count" : 466865,
            "max" : [
                11.318342208862305,
                10.971750259399414,
                11.318342208862305
            ],
            "min" : [
                -11.318343162536621,
                -10.971749305725098,
                -11.318342208862305
            ],
            "type" : "VEC3"
        },
        {
            "bufferView" : 1,
            "componentType" : 5126,
            "count" : 466865,
            "type" : "VEC3"
        },
        {
            "bufferView" : 2,
            "componentType" : 5126,
            "count" : 466865,
            "type" : "VEC2"
        },
        {
            "bufferView" : 3,
            "componentType" : 5125,
            "count" : 700416,
            "type" : "SCALAR"
        },
        {
            "bufferView" : 4,
            "componentType" : 5126,
            "count" : 704,
            "max" : [
                11.687484741210938,
                0.9064998626708984,
                11.687485694885254
            ],
            "min" : [
                -11.68748664855957,
                -0.9064998626708984,
                -11.687485694885254
            ],
            "type" : "VEC3"
        },
        {
            "bufferView" : 5,
            "componentType" : 5126,
            "count" : 704,
            "type" : "VEC3"
        },
        {
            "bufferView" : 6,
            "componentType" : 5126,
            "count" : 704,
            "type" : "VEC2"
        },
        {
            "bufferView" : 7,
            "componentType" : 5123,
            "count" : 1140,
            "type" : "SCALAR"
        },
        {
            "bufferView" : 8,
            "componentType" : 5126,
            "count" : 3047,
            "max" : [
                9.598194122314453,
                11.396285057067871,
                9.59819507598877
            ],
            "min" : [
                -9.598196029663086,
                -11.396285057067871,
                -9.59819507598877
            ],
            "type" : "VEC3"
        },
        {
            "bufferView" : 9,
            "componentType" : 5126,
            "count" : 3047,
            "type" : "VEC3"
        },
        {
            "bufferView" : 10,
            "componentType" : 5126,
            "count" : 3047,
            "type" : "VEC2"
        },
        {
            "bufferView" : 11,
            "componentType" : 5123,
            "count" : 4608,
            "type" : "SCALAR"
        },
        {
            "bufferView" : 12,
            "componentType" : 5126,
            "count" : 11588,
            "max" : [
                8.139615058898926,
                10.801502227783203,
                8.140104293823242
            ],
            "min" : [
                -8.139660835266113,
                -10.801502227783203,
                -8.140168190002441
            ],
            "type" : "VEC3"
        },
        {
            "bufferView" : 13,
            "componentType" : 5126,
            "count" : 11588,
            "type" : "VEC3"
        },
        {
            "bufferView" : 14,
            "componentType" : 5126,
            "count" : 11588,
            "type" : "VEC2"
        },
        {
            "bufferView" : 15,
            "componentType" : 5123,
            "count" : 19308,
            "type" : "SCALAR"
        },
        {
            "bufferView" : 16,
            "componentType" : 5126,
            "count" : 15872,
            "max" : [
                11.802608489990234,
                0.2466539889574051,
                11.802608489990234
            ],
            "min" : [
                -11.802608489990234,
                -0.32953131198883057,
                -11.802607536315918
            ],
            "type" : "VEC3"
        },
        {
            "bufferView" : 17,
            "componentType" : 5126,
            "count" : 15872,
            "type" : "VEC3"
        },
        {
            "bufferView" : 18,
            "componentType" : 5126,
            "count" : 15872,
            "type" : "VEC2"
        },
        {
            "bufferView" : 19,
            "componentType" : 5123,
            "count" : 23040,
            "type" : "SCALAR"
        },
        {
            "bufferView" : 20,
            "componentType" : 5126,
            "count" : 4736,
            "max" : [
                9.415663719177246,
                10.627155303955078,
                9.415663719177246
            ],
            "min" : [
                -9.415663719177246,
                10.096888542175293,
                -9.41566276550293
            ],
            "type" : "VEC3"
        },
        {
            "bufferView" : 21,
            "componentType" : 5126,
            "count" : 4736,
            "type" : "VEC3"
        },
        {
            "bufferView" : 22,
            "componentType" : 5126,
            "count" : 4736,
            "type" : "VEC2"
        },
        {
            "bufferView" : 23,
            "componentType" : 5123,
            "count" : 23040,
            "type" : "SCALAR"
        },
        {
            "bufferView" : 24,
            "componentType" : 5126,
            "count" : 15872,
            "max" : [
                9.374079704284668,
                -10.238049507141113,
                9.374079704284668
            ],
            "min" : [
                -9.374079704284668,
                -10.770931243896484,
                -9.374078750610352
            ],
            "type" : "VEC3"
        },
        {
            "bufferView" : 25,
            "componentType" : 5126,
            "count" : 15872,
            "type" : "VEC3"
        },
        {
            "bufferView" : 26,
            "componentType" : 5126,
            "count" : 15872,
            "type" : "VEC2"
        },
        {
            "bufferView" : 27,
            "componentType" : 5123,
            "count" : 23040,
            "type" : "SCALAR"
        }
    ],
    "bufferViews" : [
        {
            "buffer" : 0,
            "byteLength" : 5602380,
            "byteOffset" : 0
        },
        {
            "buffer" : 0,
            "byteLength" : 5602380,
            "byteOffset" : 5602380
        },
        {
            "buffer" : 0,
            "byteLength" : 3734920,
            "byteOffset" : 11204760
        },
        {
            "buffer" : 0,
            "byteLength" : 2801664,
            "byteOffset" : 14939680
        },
        {
            "buffer" : 0,
            "byteLength" : 8448,
            "byteOffset" : 17741344
        },
        {
            "buffer" : 0,
            "byteLength" : 8448,
            "byteOffset" : 17749792
        },
        {
            "buffer" : 0,
            "byteLength" : 5632,
            "byteOffset" : 17758240
        },
        {
            "buffer" : 0,
            "byteLength" : 2280,
            "byteOffset" : 17763872
        },
        {
            "buffer" : 0,
            "byteLength" : 36564,
            "byteOffset" : 17766152
        },
        {
            "buffer" : 0,
            "byteLength" : 36564,
            "byteOffset" : 17802716
        },
        {
            "buffer" : 0,
            "byteLength" : 24376,
            "byteOffset" : 17839280
        },
        {
            "buffer" : 0,
            "byteLength" : 9216,
            "byteOffset" : 17863656
        },
        {
            "buffer" : 0,
            "byteLength" : 139056,
            "byteOffset" : 17872872
        },
        {
            "buffer" : 0,
            "byteLength" : 139056,
            "byteOffset" : 18011928
        },
        {
            "buffer" : 0,
            "byteLength" : 92704,
            "byteOffset" : 18150984
        },
        {
            "buffer" : 0,
            "byteLength" : 38616,
            "byteOffset" : 18243688
        },
        {
            "buffer" : 0,
            "byteLength" : 190464,
            "byteOffset" : 18282304
        },
        {
            "buffer" : 0,
            "byteLength" : 190464,
            "byteOffset" : 18472768
        },
        {
            "buffer" : 0,
            "byteLength" : 126976,
            "byteOffset" : 18663232
        },
        {
            "buffer" : 0,
            "byteLength" : 46080,
            "byteOffset" : 18790208
        },
        {
            "buffer" : 0,
            "byteLength" : 56832,
            "byteOffset" : 18836288
        },
        {
            "buffer" : 0,
            "byteLength" : 56832,
            "byteOffset" : 18893120
        },
        {
            "buffer" : 0,
            "byteLength" : 37888,
            "byteOffset" : 18949952
        },
        {
            "buffer" : 0,
            "byteLength" : 46080,
            "byteOffset" : 18987840
        },
        {
            "buffer" : 0,
            "byteLength" : 190464,
            "byteOffset" : 19033920
        },
        {
            "buffer" : 0,
            "byteLength" : 190464,
            "byteOffset" : 19224384
        },
        {
            "buffer" : 0,
            "byteLength" : 126976,
            "byteOffset" : 19414848
        },
        {
            "buffer" : 0,
            "byteLength" : 46080,
            "byteOffset" : 19541824
        }
    ],
    "samplers" : [
        {
            "magFilter" : 9729,
            "minFilter" : 9987
        }
    ],
    "buffers" : [
        {
            "byteLength" : 19587904,
            "uri" : "tonau.bin"
        }
    ]
}
